<?xml version="1.0" standalone="no"?>
<!DOCTYPE svg PUBLIC "-//W3C//DTD SVG 20010904//EN"
 "http://www.w3.org/TR/2001/REC-SVG-20010904/DTD/svg10.dtd">
<svg version="1.0" xmlns="http://www.w3.org/2000/svg"
 width="96.000000pt" height="96.000000pt" viewBox="0 0 96.000000 96.000000"
 preserveAspectRatio="xMidYMid meet">

<g transform="translate(0.000000,96.000000) scale(0.100000,-0.100000)"
fill="#000000" stroke="none">
<path d="M421 863 c-124 -65 -93 -242 45 -259 73 -9 141 46 150 122 13 104
-103 186 -195 137z m99 -83 c11 -11 20 -29 20 -40 0 -26 -34 -60 -60 -60 -26
0 -60 34 -60 60 0 11 9 29 20 40 11 11 29 20 40 20 11 0 29 -9 40 -20z"/>
<path d="M405 554 c-94 -24 -147 -48 -175 -80 -26 -30 -30 -42 -30 -94 l0 -60
35 0 c19 0 35 -2 35 -6 0 -18 -58 -74 -78 -74 -33 0 -72 -43 -72 -80 0 -41 39
-80 80 -80 43 0 80 39 80 83 0 26 12 50 48 95 40 52 52 61 80 62 31 0 32 -1
32 -41 0 -26 -7 -50 -20 -66 -27 -35 -26 -78 5 -108 71 -72 178 28 115 108
-13 16 -20 40 -20 66 0 40 1 41 33 41 27 -1 39 -10 80 -62 35 -45 47 -69 47
-95 0 -44 37 -83 80 -83 41 0 80 39 80 80 0 37 -39 80 -72 80 -20 0 -78 56
-78 74 0 4 16 6 35 6 l35 0 0 60 c0 54 -3 64 -32 95 -21 23 -55 43 -93 56 -58
20 -189 33 -230 23z m176 -90 c59 -17 99 -39 99 -54 0 -6 -76 -10 -200 -10
-110 0 -200 4 -200 9 0 16 29 33 87 51 72 23 143 25 214 4z"/>
</g>
</svg>
